<?xml version="1.0" encoding="UTF-8" standalone="no"?>
<!DOCTYPE svg PUBLIC "-//W3C//DTD SVG 1.1//EN" "http://www.w3.org/Graphics/SVG/1.1/DTD/svg11.dtd">
<svg width="100%" height="100%" viewBox="0 0 3334 2500" version="1.1" xmlns="http://www.w3.org/2000/svg" xmlns:xlink="http://www.w3.org/1999/xlink" xml:space="preserve" xmlns:serif="http://www.serif.com/" style="fill-rule:evenodd;clip-rule:evenodd;stroke-linejoin:round;stroke-miterlimit:2;">
    <g transform="matrix(4.16667,0,0,4.16667,0,0)">
        <g transform="matrix(1.13189,0,0,1.13189,-85.0719,-61.1343)">
            <path d="M358,135L228,155L228,241L260,241L262,203L289,204L288,235L327,234L327,265L293,266L291,412L360,351L360,204L314,204L315,173L360,173L358,135Z" style="fill:white;"/>
            <path d="M228,267L262,268L262,442L228,442L228,267Z" style="fill:white;"/>
            <path d="M375,383L302,451L461,485L375,383Z" style="fill:white;"/>
            <path d="M479,442L478,259L429,259L426,223L479,220L478,182L529,178L531,212L599,213L599,92L395,126L394,160L445,160L445,197L396,201L396,353L479,442Z" style="fill:white;"/>
            <path d="M531,255L599,255L599,509L531,494L531,255Z" style="fill:white;"/>
        </g>
    </g>
</svg>
